<?xml version="1.0" standalone="no"?>
<!DOCTYPE svg PUBLIC "-//W3C//DTD SVG 1.1//EN" "http://www.w3.org/Graphics/SVG/1.1/DTD/svg11.dtd" >
<svg xmlns="http://www.w3.org/2000/svg">
<metadata>Generated by IcoMoon</metadata>
<defs>
<font id="icomoon" horiz-adv-x="512">
<font-face units-per-em="512" ascent="480" descent="-32" />
<missing-glyph horiz-adv-x="512" />
<glyph unicode="&#x20;" d="" horiz-adv-x="256" />
<glyph unicode="&#xe600;" d="M256 480c-88.366 0-160-71.634-160-160 0-160 160-352 160-352s160 192 160 352c0 88.366-71.635 160-160 160zM256 224c-53.020 0-96 42.98-96 96s42.98 96 96 96 96-42.98 96-96-42.98-96-96-96z" />
<glyph unicode="&#xe601;" d="M320.668 305.177h-58.846v0.491l14.438 11.98c22.558 20.156 41.517 41.032 41.517 67.22 0 28.327-19.423 48.948-54.724 48.948-21.15 0-39.377-7.19-51.151-16.087l10.317-26.142c8.177 6.247 19.927 12.966 33.395 12.966 17.989 0 25.684-10.094 25.684-22.812-0.478-18.246-17.041-35.772-51.139-66.233l-20.181-18.271v-22.085h110.698v30.027zM428.307 93.833c-4.675 13.935-20.035 28.454-34.154 32.282l-52.267 14.267c-14.183 3.853-34.384-1.324-44.752-11.698l-18.921-18.901c-68.69 18.584-122.593 72.447-141.145 141.157l18.915 18.901c10.369 10.369 15.559 30.518 11.693 44.682l-14.247 52.252c-3.852 14.137-18.404 29.498-32.321 34.135l-5.967 2c-13.928 4.642-33.805-0.044-44.184-10.413l-28.288-28.296c-5.044-5.006-8.279-19.38-8.279-19.43-0.968-89.77 34.23-176.287 97.77-239.792 63.352-63.341 149.577-98.495 239.117-97.738 0.44 0 15.233 3.178 20.289 8.195l28.288 28.282c10.368 10.354 15.050 30.218 10.418 44.159l-1.967 5.955zM442.382 431.166h-44.675l-59.067-95.023v-23.742h69.149v-37.237h34.594v37.237h18.723v27.327h-18.723v91.439zM407.795 374.295v-34.588h-35.046v0.505l20.882 34.071c5.284 9.839 9.387 18.959 14.405 29.053h0.955c-0.726-10.082-1.197-19.666-1.197-29.040z" />
<glyph unicode="&#xe602;" d="M326.382-16.25h-203.876c-8.016 0-14.516 6.522-14.516 14.495v58.358c-11.971 20.344-73.737 125.132-93.659 159.95-1.115 1.977-1.746 4.103-1.872 6.332-1.030 17.588 3.198 31.556 12.623 41.549 18.239 19.334 45.063 14.137 45.063 14.159 3.597-0.589 7.005-2.566 9.278-5.47l28.569-36.795v169.753c0 39.971 21.837 58.169 42.118 58.169 20.26 0 42.096-18.197 42.096-58.169 0.168-18.577 0.168-45.021 0.168-61.787 1.704 0.063 3.471 0.126 5.302 0.126 40.855 0 55.686-16.346 60.82-30.694 4.776 0.252 9.783 0.442 14.789 0.442 35.785 0 50.279-12.37 55.265-26.255 15.399-1.851 27.623-7.385 36.437-16.494 13.401-13.822 13.233-30.42 13.149-32.272l1.683-118.757c0.063-2.651-0.652-5.26-1.977-7.531l-36.963-63.134v-51.479c0.042-7.974-6.479-14.495-14.495-14.495zM137 12.761h174.886v40.918c0 2.567 0.673 5.070 1.998 7.321l36.921 63.029-1.599 115.391c-0.063 5.028-2.588 20.196-32.861 20.196-8.036 0-14.537 6.521-14.537 14.495 0 3.577 0 11.024-28.485 11.024-6.459 0-12.854-0.399-18.639-0.715l-7.426-0.399c-3.976-0.294-7.804 1.284-10.687 3.997s-4.482 6.542-4.482 10.498c0 11.192-11.55 16.851-34.397 16.851-9.698 0-17.398-1.22-17.504-1.241-4.208-0.736-8.5 0.505-11.739 3.261-3.239 2.798-5.113 6.858-5.091 11.129 0 0 0.105 48.344-0.147 77.44 0 20.238-7.657 29.305-13.106 29.305s-13.106-9.067-13.106-29.158v-212.123c0-6.207-3.913-11.718-9.803-13.716-5.87-1.998-12.329-0.042-16.135 4.839l-50.406 64.922c-4.334-0.21-10.561-1.304-14.474-5.47-3.261-3.471-4.902-9.109-4.902-16.704 23.794-41.381 93.008-158.666 93.722-159.865 1.304-2.23 1.999-4.776 1.999-7.405v-47.818zM177.329 267.759c-8.016 0-14.495 6.458-14.495 14.474v43.716c0 8.016 6.48 14.495 14.495 14.495s14.495-6.501 14.495-14.495v-43.695c0-8.037-6.48-14.495-14.495-14.495zM246.185 238.621c-8.016 0-14.474 6.458-14.474 14.474v43.737c0 7.995 6.48 14.495 14.474 14.495s14.495-6.522 14.495-14.495v-43.716c0-8.036-6.48-14.495-14.495-14.495zM315.8 224.064c-8.015 0-14.515 6.501-14.515 14.516v29.117c0 7.994 6.522 14.474 14.515 14.474s14.474-6.501 14.474-14.474v-29.117c0.022-8.016-6.479-14.516-14.474-14.516z" horiz-adv-x="400" />
<glyph unicode="&#xe603;" d="M382.758 371.933c19.856 0 35.953 15.784 35.953 35.444v37.104c0 19.677-16.062 35.519-35.953 35.519s-35.964-15.825-35.964-35.519v-37.115c0-19.648 16.074-35.433 35.964-35.433zM510.519 418.563h-72.409v-18.051c0-29.799-24.512-54.086-54.728-54.086-30.267 0-54.733 24.287-54.733 54.085v18.052h-146.085v-18.052c0-29.799-24.559-54.085-54.763-54.085-30.221 0-54.745 24.269-54.745 54.085v18.052l-73.057 0.903v-451.46l511.051 0.104-0.532 450.453zM474.555 3.953h-438.041v288.422h438.041v-288.422zM127.235 371.933c19.873 0 35.982 15.784 35.982 35.444v37.104c-0.023 19.695-16.114 35.519-35.982 35.519-19.885 0-35.935-15.825-35.935-35.519v-37.115c0-19.648 16.044-35.433 35.935-35.433zM182.668 253.668h57.538v-50.135h-57.538v50.135zM275.656 253.668h57.585v-50.135h-57.585v50.135zM361.942 253.668h57.538v-50.135h-57.538v50.135zM182.668 170.397h57.538v-50.101h-57.538v50.101zM275.656 170.397h57.585v-50.101h-57.585v50.101zM361.942 170.397h57.538v-50.101h-57.538v50.101zM182.668 85.478h57.538v-50.101h-57.538v50.101zM91.299 170.397h57.493v-50.101h-57.493v50.101zM91.299 85.478h57.493v-50.101h-57.493v50.101zM275.656 85.478h57.585v-50.101h-57.585v50.101zM361.942 85.478h57.538v-50.101h-57.538v50.101z" horiz-adv-x="511" />
<glyph unicode="&#xe604;" d="M816.667 9.813c0 58.286-38.535 107.87-92.577 127.232 12.485 12.179 21.443 30.518 25.523 55.966 5.466-0.999 12.74 4.682 15.217 14.202 2.601 9.801 5.565 26.249 0 27.685-1.659 0.446-3.418 0.107-5.103-0.768v27.232c0.909 29.568-3.163 58.154-35.497 70.523-5.904 12.138-6.341 23.136-6.341 23.136-14.54-13.071-69.862-18.38-69.862-18.38l0.644-0.182c-70.094-7.2-59.971-32.326-59.971-75.114v-27.224c-1.692 0.851-3.427 1.206-5.103 0.76-5.606-1.445-3.881-17.307-1.321-27.091 2.502-9.611 11.114-15.936 16.613-14.822 4.211-26.745 12.576-44.605 24.102-56.263-21.394-7.795-40.17-20.502-55.182-36.43-22.864 24.936-51.978 44.588-85.113 56.495 18.504 17.992 31.765 45.149 37.867 82.942 8.183-1.445 18.892 6.944 22.558 21.063 3.823 14.524 8.265 38.907-0.049 41.12-2.411 0.653-5.004 0.157-7.514-1.147v40.36c1.362 43.877-4.673 86.219-52.68 104.567-8.752 17.967-9.298 34.325-9.298 34.325-21.601-19.404-103.601-27.273-103.601-27.273l0.942-0.256c-103.947-10.635-88.945-47.916-88.945-111.362v-40.36c-2.543 1.305-5.087 1.792-7.563 1.147-8.315-2.213-5.788-25.671-1.965-40.212 3.732-14.251 16.489-23.623 24.663-21.939 6.209-39.716 18.628-66.114 35.728-83.421-32.697-11.923-61.416-31.426-84.023-56.065-15.209 16.084-34.233 28.933-55.924 36.702 12.476 12.179 21.444 30.51 25.539 55.974 5.499-0.999 12.732 4.673 15.226 14.178 2.584 9.81 5.573 26.257-0.025 27.702-1.66 0.438-3.377 0.091-5.095-0.76v27.224c0.941 29.585-3.146 58.146-35.488 70.523-5.879 12.121-6.3 23.136-6.3 23.136-14.59-13.079-69.871-18.389-69.871-18.389l0.644-0.173c-70.118-7.2-60.004-32.334-60.004-75.114v-27.232c-1.701 0.858-3.426 1.206-5.103 0.76-5.606-1.436-3.898-17.315-1.313-27.107 2.526-9.611 11.13-15.911 16.613-14.796 4.203-26.777 12.576-44.613 24.111-56.263-53.621-19.586-91.826-68.938-91.826-126.952h201.363c-2.989-13.459-4.681-27.389-4.681-41.673h423.279c0 14.284-1.684 28.214-4.665 41.673l201.388 0.14z" horiz-adv-x="817" />
<glyph unicode="&#xe605;" d="M255.899 32.611c-10.363 0-25.534 11.681-35.618 12.736-28.745-24.107-58.669-53.163-99.375-68.226-17.778-7.539-33.042-11.899-37.013-7.151-5.305 6.174-13.372 14.706-14.814 17.017 0.093 3.506 4.251 0.76 8.749 5.631 24.557 10.378 40.426 37.044 51.099 69.606-76.944 38.596-128.927 110.947-128.927 194.065 0 123.56 114.593 223.71 255.93 223.71 141.321 0 255.93-100.119 255.93-223.71-0.046-123.544-114.639-223.679-255.961-223.679v0z" />
<glyph unicode="&#xe607;" d="M327.897 224c0-39.707-32.188-71.897-71.897-71.897s-71.897 32.188-71.897 71.897c0 39.707 32.189 71.897 71.897 71.897s71.897-32.189 71.897-71.897z" />
<glyph unicode="&#xe608;" d="M256 480c-141.383 0-256-114.617-256-256s114.617-256 256-256c141.383 0 256 114.617 256 256s-114.617 256-256 256zM317.221 109.26c8.060-8.046 8.060-21.127 0-29.173-4.030-4.030-9.312-6.038-14.594-6.038s-10.563 2.008-14.594 6.038l-129.321 129.321c-8.060 8.046-8.060 21.127 0 29.173l129.321 129.321c8.060 8.060 21.113 8.060 29.173 0 8.060-8.047 8.060-21.127 0-29.173l-114.74-114.74 114.755-114.727z" />
<glyph unicode="&#xe609;" d="M244.391 480c17.607 0 31.799-14.233 31.799-31.759v-164.12l211.778-132.32v-56.889l-211.778 71.406v-111.216l43.185-42.941-0.082-44.079-74.903 24.846-73.846-24.968 0.406 46.357 40.42 39.566 0.366 112.476-211.738-72.788 0.448 58.272 211.9 133.622 0.326 162.778c-0.041 17.567 14.151 31.758 31.718 31.758v0z" horiz-adv-x="488" />
<glyph unicode="&#xe60a;" d="M165.316 449.536v-377.54l-113.332 113.393c-11.897 11.897-31.157 11.897-43.068 0-11.896-11.897-11.896-31.187 0-43.084l165.316-165.391c5.708-5.707 13.447-8.915 21.534-8.915 8.071 0 15.827 3.223 21.534 8.915l165.316 165.391c5.933 5.948 8.915 13.748 8.915 21.549s-2.966 15.601-8.915 21.534c-11.897 11.911-31.172 11.911-43.053 0l-113.332-113.393v377.54c-0.015 16.82-13.659 30.464-30.464 30.464-16.821 0-30.449-13.644-30.449-30.464z" horiz-adv-x="392" />
<glyph unicode="&#xe60b;" d="M0 214.834l192.46-246.857 38.624 27.154-158.203 228.548 158.203 229.188-38.625 27.132-192.46-248.114v-17.051zM224.247 214.834l193.078-246.857 38.007 27.154-158.226 228.526 158.204 229.188-38.007 27.154-193.078-248.114 0.022-17.051z" horiz-adv-x="456" />
<glyph unicode="&#xe60c;" d="M269.75 480l-39.637-27.144 162.375-229.179-162.375-228.511 39.637-27.167 197.514 246.859v17.035zM237.15 231.894l-198.16 248.106-38.99-27.144 162.375-229.179-162.375-228.511 38.99-27.167 198.16 246.859z" horiz-adv-x="468" />
<glyph unicode="&#xe60d;" d="M272 480h-224c-26.41 0-48-21.632-48-48v-416c0-26.411 21.59-48 48-48h224c26.411 0 48 21.589 48 48v416c0 26.368-21.589 48-48 48zM96 456.022h128v-16h-128v16zM160 0c-17.664 0-32 14.293-32 32s14.336 32 32 32 32-14.293 32-32c0-17.707-14.336-32-32-32zM288 96h-256v320h256v-320z" horiz-adv-x="320" />
<glyph unicode="&#xe60e;" d="M352.128-32c-14.25 0-25.771 11.435-25.771 25.6v227.925l-68.693 19.499v177.024c0 34.134 26.923 61.952 60.118 61.952 2.901 0 5.717-0.512 8.534-0.896v0.853h51.584v-17.024h-1.622c0.938-2.688 1.622-5.546 1.622-8.534v-460.8c0-14.166-11.52-25.6-25.77-25.6v0zM137.472 258.134h-17.237v-17.067h-1.579c0.939-2.645 1.579-5.504 1.579-8.534v-238.933c0-14.123-11.52-25.6-25.77-25.6-14.208 0-25.77 11.435-25.77 25.6v238.934c0 2.987 0.597 5.888 1.579 8.534h-1.536v17.066h-17.152c-28.502 0-51.584 22.912-51.584 51.2v119.424c0 22.272 14.421 41.045 34.432 48.085v-158.037c0-5.248 3.84-9.472 8.576-9.472s8.576 4.224 8.576 9.472v161.152h34.347v-161.152c0-5.248 3.84-9.472 8.576-9.472s8.576 4.224 8.576 9.472v161.152h34.389v-161.152c0-5.248 3.84-9.472 8.576-9.472 4.694 0 8.576 4.224 8.576 9.472v158.037c19.925-7.040 34.346-25.771 34.346-48.086v-119.424c0-28.288-23.083-51.2-51.499-51.2v0z" horiz-adv-x="378" />
<glyph unicode="&#xe60f;" d="M0-12.264v479.796l239.898-239.898-239.898-239.898zM426.522 139.089c-14.069-14.135-38.738-14.135-52.873 0l-340.911 340.911h734.829l-341.045-340.911zM25.537-32l236.964 236.964 88.678-88.545c13.002-13.135 30.471-20.269 48.94-20.269 18.536 0 35.938 7.201 49.007 20.269l88.545 88.545 237.097-236.964h-749.231zM560.34 227.634l239.764 239.698v-479.396l-239.764 239.698z" horiz-adv-x="800" />
<glyph unicode="&#xe610;" d="M256 480c-141.387 0-256-114.613-256-256 0-141.392 114.614-256 256-256s256 114.608 256 256c0 141.387-114.613 256-256 256zM316.635 303.094h-38.49c-4.555 0-9.627-5.978-9.627-13.989v-27.792h48.112v-39.616h-48.112v-118.966h-45.44v118.966h-41.19v39.616h41.19v23.317c0 33.435 23.21 60.63 55.062 60.63h38.49v-42.166z" />
<glyph unicode="&#xe611;" d="M231.915 296.4c-6.448 22.656-16.843 29.36-33.018 29.36-1.75 0-3.499-0.24-5.19-0.72-6.998-1.968-12.56-7.824-15.669-16.501-3.157-8.816-3.376-17.99-0.624-28.48 4.917-18.672 18.197-32.229 31.595-32.229 1.76 0 3.499 0.24 5.179 0.714 14.635 4.123 23.803 26.475 17.728 47.856zM256 480c-141.387 0-256-114.613-256-256 0-141.392 114.614-256 256-256 141.398 0 256 114.608 256 256 0 141.387-114.603 256-256 256zM241.248 114.086c-16.075-7.813-33.398-8.656-40.096-8.656-1.269 0-2.011 0.032-2.123 0.032 0 0-0.48-0.010-1.302-0.010-10.438 0-62.47 2.4-62.47 49.792 0 46.565 56.656 50.197 74.022 50.197l0.458-0.005c-10.032 13.382-7.946 26.901-7.946 26.901-0.886-0.064-2.166-0.123-3.75-0.123-6.544 0-19.147 1.046-29.989 8.042-13.258 8.534-19.978 23.061-19.978 43.189 0 56.811 62.042 59.115 62.656 59.126h61.968v-1.344c0-6.938-12.438-8.256-20.939-9.418-2.864-0.394-8.645-1.002-10.282-1.846 15.685-8.362 18.23-21.541 18.23-41.178 0-22.336-8.752-34.154-18.032-42.459-5.728-5.131-10.262-9.184-10.262-14.571 0-5.291 6.208-10.742 13.387-17.040 11.77-10.341 27.893-24.496 27.893-48.277 0.005-24.613-10.582-42.224-31.446-52.352zM376.741 224.24h-40.416v-40.421h-25.606v40.422h-40.416v25.6h40.416v40.422h25.606v-40.422h40.416v-25.6zM208.602 193.291c-1.387 0-2.779-0.053-4.176-0.139-11.856-0.875-22.762-5.306-30.698-12.502-7.834-7.099-11.834-16.016-11.258-25.11 1.19-18.928 21.542-30.053 46.261-28.25 24.341 1.771 40.554 15.755 39.365 34.709-1.125 17.846-16.619 31.291-39.493 31.291z" />
<glyph unicode="&#xe612;" d="M464.183 115.928c-41.885 20.761-25.784 4.902-77.172 26.148s-63.614 28.145-63.614 28.145l-0.423 48.724c0 0 19.187 14.526 25.24 60.588 11.985-3.45 16.161 14.042 16.705 25.179 0.787 10.834 7.142 44.548-7.566 41.522 3.026 22.516 5.387 42.853 4.298 53.627-3.632 37.829-29.901 77.233-96.056 80.138-56.291-2.906-92.788-42.369-96.481-80.138-1.089-10.834 1.089-31.111 4.055-53.688-14.708 3.087-8.292-30.688-7.748-41.461 0.726-11.197 4.721-28.811 16.766-25.3 5.992-46.061 25.24-60.709 25.24-60.709l-0.423-48.966c0 0-12.166-7.385-63.674-28.63-51.327-21.245-35.227-4.418-77.112-25.18-66.217-32.867-66.217-123.113-66.217-123.113v0 0c0-13.679 11.137-24.755 24.877-24.755h480.587c13.74 0 24.876 11.137 24.876 24.755v0 0c0.061 0 0.061 90.246-66.156 123.113zM726.327-9.423c0 0 0 82.135-60.225 112.036-38.072 18.885-23.424 4.418-70.212 23.848-46.788 19.248-57.803 25.543-57.803 25.543l-0.423 44.245c0 0 17.492 13.255 22.94 55.141 10.956-3.208 14.648 12.772 15.253 22.94 0.606 9.926 6.416 40.492-6.961 37.829 2.723 20.398 4.903 38.919 3.934 48.725-3.329 34.44-27.177 70.272-87.341 72.935-51.206-2.663-84.496-38.556-87.885-72.935-0.908-9.805 1.089-28.327 3.813-48.785-13.377 2.723-7.627-27.964-7.021-37.769 0.666-10.168 4.237-26.148 15.253-23.001 5.447-41.946 23-55.261 23-55.261l-0.484-44.367c15.918-3.752 18.037-0.726 50.117-16.584 75.054-37.224 75.054-139.637 75.054-139.637v0-0.060c0-13.437-9.442-24.635-22.092-27.419h168.447c12.529 0 22.637 10.108 22.637 22.577v0 0 0z" horiz-adv-x="727" />
<glyph unicode="&#xe613;" d="M564.447 171.671l-282.223 219.053-282.223-219.053v89.276l282.223 219.053 282.223-219.053v-89.276zM493.89 179.62v-211.668h-141.111v141.111h-141.112v-141.111h-141.112v211.668l211.667 158.75 211.668-158.75z" horiz-adv-x="565" />
<glyph unicode="&#xe614;" d="M256 480c-141.376 0-256-114.624-256-256s114.624-256 256-256 256 114.624 256 256-114.624 256-256 256zM224 384h64v-64h-64v64zM320 64h-128v32h32v128h-32v32h96v-160h32v-32z" />
<glyph unicode="&#xe615;" d="M0-32v214.326h226.232v-23.814h119.070v23.814h226.232v-214.326h-571.535zM547.721 206.139h-202.418v23.814h-119.022v-23.814h-226.28v214.326h202.418v59.535h166.697v-59.535h202.418v-214.326h-23.814zM345.303 456.186h-119.070v-35.721h119.070v35.721z" horiz-adv-x="572" />
<glyph unicode="&#xe616;" d="M505.587 238.228v0.054c0 0.081-0.027 0.161-0.027 0.269 0.027 1.859-0.269 3.745-0.943 5.524-0.916 4.419-2.425 8.596-5.039 12.1h0.081l-0.431 0.431c-1.563 2.048-3.368 3.854-5.389 5.444l-68.527 69.093v53.733c0 15.252-15.818 26.947-26.947 26.947h-53.625l-48.344 41.31c-17.139 17.166-47.077 17.192-64.243 0l-48.155-41.31h-55.107c-12.504 0-26.948-11.695-26.948-26.947v-54.056l-67.207-67.288c-8.219-5.417-13.636-18.782-13.636-40.367v-220.483c0-16.68 5.363-22.043 22.016-22.043h440.32c16.654 0 22.016 5.389 22.016 22.043l0.108 235.008c0.054 0.215 0.027 0.351 0.027 0.539zM445.979 268.598h-0.458l23.714-28.429-43.924-39.047v88.145l20.668-20.668zM253.575 431.683c2.856 2.83 6.683 4.447 10.698 4.447 4.042 0 7.868-1.617 10.725-4.447l23.552-19.86h-68.5l23.525 19.86zM398.363 384.876l-0.351-26.193-2.803 2.803c1.697-14.309 2.075-28.834 1.212-43.332l1.051-1.051-1.86-142.363-38.292-34.007-64.512 58.529c-17.812 13.986-43.412 14.606-62.303-0.647l-59.904-55.62-39.666 35.031-2.048 206.848h269.474zM70.198 256.175l31.744 31.771v-84.291l-43.628 38.535 11.183 14.012h0.701zM43.304 215.026l105.014-92.753-100.756-93.588-4.258 186.341zM69.335 7.613l108.22 100.487c1.967 0.836 3.827 2.129 5.335 3.88 0.62 0.7 0.889 1.59 1.375 2.344l65.886 61.197c3.423 2.776 7.491 4.204 11.776 4.204 4.339 0 8.677-1.509 11.615-3.8l185.505-168.34h-389.713zM479.205 7.613h-1.24c0.431 0.458 0.836 0.916 1.267 1.375l-0.027-1.375zM379.931 120.279l103.29 91.756-3.584-182.245-99.705 90.49z" />
<glyph unicode="&#xe617;" d="M256 480c-141.385 0-256-114.633-256-256 0-141.391 114.615-256 256-256 141.373 0 256 114.609 256 256 0 141.367-114.627 256-256 256zM287.153 192.847v0.031l-185.058-0.031v62.293l307.803 0.012 0.012-62.312h-122.758z" />
<glyph unicode="&#xe618;" d="M256 480c-141.385 0-256-114.633-256-256 0-141.391 114.615-256 256-256 141.373 0 256 114.609 256 256 0 141.367-114.627 256-256 256zM287.153 192.847v-122.758h-62.299v122.758h-122.758v62.293h122.758l-0.006 122.746 62.312 0.012v-122.752l122.74 0.006 0.012-62.312h-122.758z" />
<glyph unicode="&#xe619;" d="M0 214.834l192.482-246.834 38.602 27.132-158.203 228.526 158.203 229.188-38.625 27.154-192.46-248.114v-17.051z" horiz-adv-x="231" />
<glyph unicode="&#xe61a;" d="M237.15 214.859l-197.514-246.859-39.636 27.144 162.375 228.555-162.375 229.156 39.636 27.144 197.514-248.106v-17.034z" horiz-adv-x="237" />
<glyph unicode="&#xe61b;" d="M356.5 35.74l-61.37-61.37c-8.474-8.532-22.238-8.532-30.713 0l-258.104 258.161c-8.418 8.475-8.418 22.181 0 30.599l61.313 61.37c8.475 8.475 22.239 8.475 30.713 0l258.105-258.104c8.474-8.474 8.474-22.238 0.057-30.656v0zM676.202 382.912l-387.214-408.542c-8.361-8.361-21.954-8.361-30.315 0l-60.517 60.517c-8.361 8.304-8.361 21.841 0 30.258l387.271 408.599c8.304 8.304 21.898 8.304 30.202 0l60.516-60.517c8.361-8.418 8.361-21.954 0.057-30.315v0z" horiz-adv-x="683" />
<glyph unicode="&#xe61c;" d="M0 480h819.65l-409.825-512-409.825 512z" horiz-adv-x="820" />
<glyph unicode="&#xe61d;" d="M256 480c-141.398 0-256-114.613-256-256 0-141.392 114.603-256 256-256 141.387 0 256 114.608 256 256 0 141.387-114.613 256-256 256zM360.112 270.283c0.106-2.166 0.144-4.341 0.144-6.528 0-66.63-50.72-143.462-143.456-143.462-28.47 0-54.97 8.352-77.28 22.661 3.936-0.474 7.947-0.709 12.022-0.709 23.626 0 45.365 8.058 62.624 21.589-22.064 0.4-40.688 14.981-47.104 35.008 3.083-0.582 6.24-0.906 9.488-0.906 4.592 0 9.050 0.618 13.28 1.771-23.061 4.635-40.448 25.008-40.448 49.446 0 0.214 0 0.422 0.011 0.63 6.79-3.776 14.571-6.042 22.832-6.309-13.53 9.046-22.427 24.474-22.427 41.974 0 9.238 2.48 17.894 6.822 25.344 24.864-30.507 62.022-50.576 103.925-52.683-0.864 3.69-1.301 7.541-1.301 11.493 0 27.846 22.57 50.416 50.416 50.416 14.502 0 27.606-6.123 36.8-15.92 11.488 2.262 22.283 6.454 32.022 12.234-3.771-11.77-11.76-21.659-22.166-27.893 10.197 1.221 19.914 3.925 28.96 7.936-6.752-10.101-15.306-18.986-25.163-26.090z" />
<glyph unicode="&#xe61e;" d="M528.607-7.2c0 0 0 90.303-65.943 123.122-41.76 20.792-25.682 4.889-76.913 26.166-51.275 21.233-63.433 28.149-63.433 28.149l-0.44 48.632c0 0 19.25 14.581 25.197 60.613 11.938-3.436 15.99 14.096 16.695 25.241 0.705 10.792 7.048 44.491-7.577 41.495 2.952 22.554 5.33 42.906 4.317 53.609-3.7 37.84-29.822 77.309-95.81 80.172-56.077-2.863-92.462-42.377-96.162-80.216-1.057-10.704 1.145-31.011 4.096-53.565-14.625 2.995-8.369-30.704-7.709-41.495 0.749-11.233 4.669-28.765 16.695-25.285 5.991-46.121 25.153-60.79 25.153-60.79l-0.44-48.896c0 0-12.114-7.445-63.389-28.633-51.231-21.233-35.197-4.405-76.912-25.153-66.032-32.861-66.032-123.166-66.032-123.166v0-0.044c0-13.656 11.101-24.757 24.756-24.757h479.050c13.7 0 24.757 11.101 24.757 24.757v0.044h0.044z" horiz-adv-x="529" />
<glyph unicode="&#xe61f;" d="M595.539 54.202l-238.52 390.267c-28.988 47.399-76.387 47.399-105.375 0l-238.444-390.267c-29.026-47.476-8.521-86.202 45.383-86.202v0.038h491.533c53.981 0 74.409 38.726 45.422 86.164zM334.651 34.002h-60.296v60.372h60.296v-60.372zM336.971 274.652l-15.445-159.584h-34.123l-15.711 159.508v73.8h65.279v-73.724z" horiz-adv-x="609" />
<glyph unicode="&#xe620;" d="M256-32c-141.398 0-256 114.56-256 256 0 141.398 114.603 256 256 256s256-114.603 256-256c0-141.44-114.603-256-256-256v0zM463.488 245.462c0.426 0.214 0.64 0.554 0.81 1.109 0.341-1.792 1.11-3.37 2.474-4.48 0-0.171-0.043-0.128 0-0.384 0.128 0 0.214 0.128 0.384 0.128 1.322-1.066 2.986-1.834 4.864-1.834 2.858 0 5.291 1.578 6.656 3.882 0.128-0.128 0.256-0.298 0.384-0.427-0.043 0.256-0.043 0.554-0.086 0.81 0.598 1.109 1.024 2.346 1.024 3.712 0 4.438-3.584 8.022-8.022 8.022-2.816 0-5.163-1.494-6.57-3.712-0.086 0.042 0 0.214-0.171 0.171 0.171 0.64-0.384 2.176-1.238 3.84v-8.277c0.043-0.939-0.256-1.792-0.512-2.56v0zM95.872 247.851c0 2.475-5.546 6.528-6.912 6.528 0 0.47-2.261 5.333-3.115 5.333 0 1.707-5.802 9.13-6.742 5.888-0.64-2.134 4.48-4.95 4.48-7.466 0.896 0 4.864-7.467 5.674-8.79 8.662-14.635-6.486-4.65-6.486 1.536-1.92 0.982-4.992 8.363-4.992 10.368-1.152 0.896-4.48 8.022-4.266 8.022 0 4.693-2.603 6.954-7.722 6.954-0.213 0.426-4.48 6.528-4.566 6.528 0 1.92-3.498 7.851-5.376 8.79 0 3.968-2.090 8.875-1.152 13.013 0 4.352-0.256 9.259-1.706 13.739-13.312-28.715-20.992-60.587-20.992-94.293 0-96.726 61.355-178.816 147.157-210.219 0.085 7.978 0.726 17.408 2.518 17.408 0 1.195 0.982 6.187 1.92 6.187 0 3.029 0.384 6.699 0 10.325-1.109 2.262 1.494 5.248 2.346 8.789 4.394 2.262 1.238 24.576 4.566 24.576 0 11.178 2.518 17.664 0.81 27.99 0.853 0-5.077 6.229-5.035 6.187-5.632 0-9.6 9.088-9.6 13.014-0.554 1.75-1.963 4.31-1.963 6.486 1.322 0-8.022 13.738-8.022 13.397-4.992 2.774 0.256 6.613 0.726 11.136-4.309 1.45 0.042 13.056 1.963 13.056 0.171 1.45 0.939 2.432 2.262 3.029 0.939-3.84 5.462 1.877 1.92 1.877 0 2.56-0.298 7.978 0 9.216 0 3.925-3.456 11.563-6.186 3.498-2.858 1.408-10.070 1.152-10.709 5.76 0.47 2.262-4.138 6.87-5.803 7.68 1.494 3.968-7.808 9.216-11.178 9.216 0 0.853-1.75 0.469-2.304 1.493-3.413 0-4.224 4.608-8.064 4.608-4.438 0-8.96 3.029-13.099 3.029-1.365 2.774-7.722 1.664-9.174 4.65-3.328 0-4.65 6.315-4.736 8.661-0.171 2.858-2.475 12.8-6.442 12.8v0zM420.010 376.278c-0.043-0.128 0-0.043-0.128-0.384 0.214 0 0.512-0.298 0.81-0.384-0.256 0.256-0.469 0.512-0.683 0.768v0zM424.789 370.944c0.598-1.067 0.938-2.134 0.853-2.688 0.555 0 0.853 0.299 1.28 0.427-0.726 0.726-1.45 1.493-2.134 2.262v0zM438.699 298.070c0.256 6.954-5.803 5.76-7.68 9.6-2.005 0-2.688 1.536-5.418 1.536-1.707 0.597-3.115 0.17-4.139-1.238-4.096-1.536-1.579 2.006-4.693 2.006 0.171 3.968-1.408 5.035-5.803 4.608-2.474-5.632-6.315-9.002-5.717-15.317 1.834-0.427 1.493-0.853 1.11-2.688 2.474-0.128 17.322 0.768 17.322 2.346 0.512 0 3.072-5.291 3.072-0.81 2.091 0 3.158-4.864 8.064-3.413 0.043-1.024 8.32 3.37 3.882 3.37v0zM439.466 216.406c0.298 1.408-0.726 2.048-1.536 3.456 2.219 0-6.912 16.896-6.912 19.541-1.365 0.726-3.158 5.504-3.456 7.296-1.92 1.195-3.84 5.333-4.565 7.68-2.005 1.238-6.613 6.912-7.382 9.6 2.774-0.298 6.912-0.896 6.912 2.688-1.877 0-2.134 2.261-0.384 2.261-0.555 2.304 1.28 4.011 1.664 5.846 0.469 2.262 1.408 5.674 1.408 8.278-2.646 0-3.243-0.427-5.334-1.11 0-1.578-4.736 0.341-5.418 0.341-1.024 2.091-8.277-2.518-10.368 1.621-3.286 2.987-2.389 5.334-3.498 9.514-0.555 2.176-3.456 2.262-5.205 2.603-5.077 1.024-1.45-5.93-1.664-7.51 3.072 0-1.962-3.84-1.962-5.76-5.163 1.066-3.413 6.869-6.486 8.406-0.938 1.536-0.214 2.688-2.346 2.688 0 2.090 1.11 5.803-1.152 6.486 0 1.024-4.352 1.408-4.95 2.731-2.731 0-9.173 10.41-11.136 6.912-1.238-2.262 1.024-2.816 1.45-4.651 3.968 0.811 3.584-6.528 8.448-5.76 0-0.981 0.128-2.048 0.384-3.072 3.584 0.896 3.243-2.645 5.034-2.645-1.28-1.75-5.462 2.774-4.352-0.981 0.683-2.262 0.298-4.139-2.603-6.23 0 2.389-0.171 8.832-2.688 8.832-1.664 3.328-6.699 2.518-8.832 5.717-1.707 0-2.432 5.334-5.376 5.718-0.555-0.81-2.603-1.536-3.456-1.536-1.622-3.243-10.752-0.341-10.752-0.81-0.171 0-5.12-12.202-5.376-13.781-0.64-3.413-3.37-3.499-4.224-6.741-0.426-1.622-10.411-0.896-10.411-2.091-4.31 1.494-8.064 4.48-8.064 9.259-0.384 0 0.853 11.989 1.579 13.738 0.853-0.213 0.981-0.512 1.493-1.536 2.688 1.024 8.875-0.598 8.875 2.346 2.603-0.086 3.286-1.067 2.262-3.072 2.474-0.47 6.57-1.11 6.57 2.261-1.408 0-1.536 0.128-1.536 1.536 4.565 4.779-3.498 9.088-3.498 11.52-1.579 0.554-4.906 4.096-2.56 2.731 2.005-1.067 9.301-3.413 6.442 1.451 0.171 0.085 0.298 0.213 0.341 0.426 0.853-0.64 4.267-4.138 4.267-0.81 0.938 0 4.565 2.262 1.536 2.262 0.298 1.75 0.214 3.157 0.426 4.224 4.822-2.645 2.134 1.792 4.565 3.456 0-3.243 2.646 1.536 4.267 1.536 1.92 2.816 6.229 0.598 7.296 3.84-2.389 0.853-1.92 6.741-1.92 8.875 2.816-0.512 5.974 3.798 6.4 0.853 0.171-1.152 0.341-4.267 0.896-4.694 4.224-2.218 3.115 1.238 3.115 3.456-1.408 0-3.286 4.906-3.498 7.296-1.11-0.171-2.986-0.683-3.456-1.536-4.182 0-7.040 1.536-10.368 1.536-0.256 0.512-4.267 4.992-3.84 4.992-2.304 4.010 2.346 2.859 3.072 3.072 0 3.798 15.872 3.115 16.555 9.216-5.205 0 5.376 8.832 5.376 8.832 3.541 2.986 5.418 5.589 9.771 5.974 1.877 0.128 22.528 5.803 22.528 3.2 0.853-0.043 3.541-0.043 6.4-0.128-39.978 37.12-93.355 59.99-152.234 59.99-57.002 0-108.886-21.504-148.438-56.576 0.384-0.81 0.683-1.579 0.64-2.091 2.133 0.128 5.12 1.451 5.802-1.195-1.024 0.043-2.091 0.128-3.029 0.427 0.725-5.974-2.645-2.304-5.418-2.304 0 0.128-1.195 0.598-2.56 0.982-0.853-0.768-1.749-1.536-2.56-2.347 0.128-0.256-0.085-0.298 0.128-0.64 0.896 0 0.427-1.322 2.987-2.219 2.944-0.938 6.144-1.493 9.344-2.005 2.517-0.427 3.968 0.469 6.144 0.469 0 0.298 5.29 2.646 1.579 2.646 0.512 2.133-0.469 2.645-2.731 2.645 0.213 2.262 5.546 0.81 7.722 0.81 1.664 2.774 0.085 2.475 1.536 4.992 1.749 3.158 3.84 0.427 4.992 3.456 1.75-0.683 3.286-1.579 3.882-3.84 1.365-1.109 8.448-11.563 8.448-4.224 2.56-0.81 3.798-5.546 3.84-8.022 4.565 0.64 5.035 4.096 5.035 7.637 1.024 0-0.427 1.707-0.427 2.347 1.707 0.64 3.84-1.622 3.84 0.81 0.768 0 0.768-0.768 0.768-1.579 2.432-0.427 3.968 0.298 5.418-0.214 0.982-0.384 0.512-5.632 0-7.424-0.64-2.432-5.077-2.475-5.077-3.541-5.077-3.755 5.93-5.718 7.722-8.064-1.066 0-5.035 0.512-5.035 0.768-2.518 0-8.49-2.645-10.752-0.768 3.072 0 4.181 3.755 4.565 7.296-2.774 1.11-6.186-0.726-6.998-3.541-1.365-4.736-4.438 0.214-6.059-2.944-0.597-0.213-6.144-2.774-6.144-1.92-6.272-0.854-4.608-6.144-4.608-11.862 2.475-1.493 7.51-5.76 7.254-8.107 5.632-0.938 7.68-1.578 12.714-2.304 0.427-0.853 2.090-1.621 3.072-1.92 0-3.243 3.030-2.646 5.803-2.646 0 4.224 4.906-3.541 5.376-4.992-0.683 0 1.152-4.309 1.578-5.76-0.81 0.214-1.024 0-0.81-0.81 2.432-0.896 6.272-0.64 6.912 1.92-2.346 0-1.536 2.645-1.536 4.267-2.389 1.579-2.006 4.694 0.47 5.334 0-2.176 7.936 1.365 3.413 3.072 1.109 2.432 1.834 6.229 0.085 8.362-1.152 1.322-2.56 0-3.114 2.005 2.987 0.811 0.81 6.528 0.81 9.216 0.896 0.384 3.413-0.64 3.413 0 2.987 0 7.936-3.755 9.685 0.811 4.906-2.304 0.982-4.438 6.144-2.646 0-1.28 5.803-6.912 6.528-6.912 0-0.299-0.128-1.92 1.109-1.92 0-1.238-0.768 0.725-0.768-1.536 0.726-0.086 4.608-0.81 4.608 0.81 2.475 0 4.224 3.030 4.224 5.334 1.536 0.896 4.267-8.49 6.144-8.49 1.322-2.134 5.76-5.248 5.76-7.296 0.939-0.982 1.92-0.726 1.92-3.456 1.109 0 3.456 4.608 3.456 0.426 1.066 0 4.224-2.346 4.566-4.267-2.731 0-0.128-2.645-1.536-2.645 0-2.646-5.93-0.555-7.296-0.427-1.792-8.235-12.928-2.346-19.584-4.438-3.542-1.152-10.368-8.918-10.794-12.8 4.309-0.042 6.23 3.712 10.026 4.95 3.072 0 3.712 1.92 6.486 2.688 0-0.768 0.81-0.341 0.81-1.152-5.462 0-2.133-3.541-0.554-6.144 0.982-1.579 2.176-2.389 3.413-2.858-0.47-0.896-0.939-1.834-1.28-2.858h-0.042c-1.024-0.341-3.072-1.109-3.456-1.92-6.186-0.683-3.114-0.213-2.731 1.28 0.256-0.598 2.475-0.085 2.389-0.085-0.384 1.834-0.982 1.578-0.427 2.645-3.328 0-4.95-1.578-7.68-1.578-0.47-0.854-2.816-3.030-3.84-3.030-0.81-2.346-2.56-6.656-4.608-8.064 0 0.64-5.462-3.413-4.992-3.413-1.28-1.962-2.56-1.92-3.114-4.949-0.341-0.214-1.877-5.376-1.877-6.144-2.432-1.622-3.286-8.107-7.296-8.107-2.518-4.906-6.954-4.267-6.954-10.709 1.494-1.536 2.133-8.32 2.56-10.538 0.597-2.688 1.494-5.504-2.133-5.547-0.256 0.427-2.774 4.224-2.346 4.224 0 1.578-1.92 6.613-3.072 8.192-1.494 2.133-4.31-0.341-6.528 0.597-0.982 1.92-7.339 2.346-9.643 2.346 0.341-1.408 1.408-1.877 1.494-3.456-1.834-0.853-2.944-1.664-4.906-1.408-3.328 0.512-2.901 3.072-6.613 2.688-5.93-0.555-9.984-5.418-9.984-11.264-0.64 0-0.64-11.52 0-11.52 0-3.243 2.688-5.589 2.688-8.022 2.602 0 5.547-5.76 8.064-5.76 0.256-2.006-1.28-2.347 3.030-2.304 0 0.256 2.389 1.494 2.688 3.114-2.987 0.683 0 4.566 1.963 5.333 0-2.731 3.84 0.896 3.84 1.152 0.427 0.128 4.267 1.494 4.224 1.494 0 3.114 2.901-0.256 0.81-1.494-2.090 0-1.92-3.499-3.072-3.499-0.554-2.432-1.494-4.566-2.090-6.997-0.726-2.944 1.664-3.243 0.939-6.058 3.030-0.555 6.144 0 9.216 0 0 0.555-0.085 1.024-0.384 1.579 4.438 0 0.384-8.448 3.072-8.448 0-3.2 1.536-5.675 1.536-7.68 2.090-1.365 3.328-3.2 2.645-5.76 2.602-0.341 8.064-1.024 8.064 2.304 3.925 0 4.181-2.646 3.882-5.334 7.766 0 2.901 7.68 6.186 7.68 0.298 1.238 0.81 1.45 1.621 0.598 1.536-0.853 2.774 1.622 4.053 2.389 0.427 0.298 1.792 1.067 2.048 1.067 1.066-0.64 1.152-0.469 1.621-1.152 2.133 0.043 4.267 1.152 6.059 2.474 2.774-0.384 1.877-6.272 7.083-6.613 2.090-0.214 6.869-0.81 8.661 0.469 0.47 0.298 2.133-1.067 2.304-1.622 1.707 0 1.621-1.493 2.389-1.45 0.171-0.384 0.384-0.469 0.768-0.426 0.214-0.64 1.578-0.853 2.304-2.646 0-1.664 3.456-1.962 3.456-3.072 2.518-1.195-0.853-1.579 2.987-2.731 2.090-0.64 4.011-1.707 6.23-1.834 0.768 2.731 3.072-0.426 4.267-0.426 0.64-1.195 0.896-0.256 1.494-1.493 3.584-2.944 1.238-1.834 2.688-4.992 1.707-1.152 2.262-5.034 2.688-7.296-1.365 0-0.427-5.291-0.427-5.76-1.621 0 4.267-3.115 4.267 0.768 2.475-0.426 4.096-3.115 5.803-3.115-1.024-2.262 2.688-4.053 2.688-0.384 3.626-0.384 2.645-5.846 2.304-7.68 2.688 0 3.456 1.536 5.803 1.792 2.432 1.622 5.248 2.774 8.406 2.774 8.832 0 16-7.168 16-16 0-7.978-5.93-14.293-13.568-15.488-1.067-1.195-1.92-2.262-2.005-2.262 0-0.683-0.171-8.363-0.426-8.363 0-1.536-1.152-9.984-2.346-9.984 0-4.31-2.774-5.12-3.798-9.173-2.304-1.75-8.661-4.608-9.6-6.528-1.834 0-3.157-1.536-4.992-1.536-0.256-0.555-4.181-4.224-3.456-4.224-0.298-2.688 0.128-9.13-1.322-10.88-0.939-1.195-2.389-1.067-1.792-2.944-2.176 0 0.128-1.493-3.243-1.493-2.219 0-5.974-3.072-6.144-5.675-0.085-3.2-0.982-5.462-3.669-7.382 0-1.11-4.992-1.408-4.992-4.224 0.47 0 0-5.248 0-5.76-1.494 0.086-5.12-1.408-5.803-2.646-5.035 0-4.438-0.512-7.722-2.688 0-0.683-0.47-3.072-1.109-3.072 0-3.882-2.774-0.341-4.992-2.304 0.896 0 2.006-3.84 1.536-3.84 0-3.37-2.133-3.67-4.224-6.144-1.024-0.726-2.006-3.498-2.731-3.498 0-2.262-1.066-4.31-1.066-6.486 0.47 0 0-0.981 0.341-1.92 1.066 0.341 1.109 1.536 1.578 1.536 0 1.92 3.030-1.11 1.109-1.11-1.578-2.432-3.286-2.517-4.267-5.76-0.939 0-1.792-0.896-2.518-2.005 18.858-5.12 38.656-8.149 59.178-8.149 78.848 0 147.968 40.789 187.861 102.272 0.256 5.675 1.152 11.094 1.75 12.971 1.579-1.152 2.731-3.328 3.882 0-2.774 0.555-2.134 1.493-1.152 3.84 1.024-0.64 3.2-1.408 4.906-1.365 0.555 1.024 0.896 2.091 1.45 3.029-1.579 1.28 0.64 4.438 1.365 2.858 0.384 0.81 0.726 1.579 1.067 2.346-0.171 0.043-0.128-0.086-0.384 0 0 1.365 0.256 1.238 1.152 1.92 0-0.128 0-0.128 0.043-0.256 13.952 29.269 22.058 61.824 22.058 96.427 0 1.109-0.171 2.219-0.171 3.328-0.426-1.536-1.195-3.243-2.304-3.67 0-0.981-11.478-5.974-10.794-8.022-2.005 0-9.046-2.005-10.368-4.565-1.408 0-7.168-2.048-7.723-3.072-7.125-0.043-5.803 8.363-9.259 8.363v0zM471.978 304h-8.49c-0.086 0.086-0.128 0.086-0.171 0.171-0.469 0-2.262 4.053-1.579 4.95 0.726 0 1.024 0 1.408-0.043-0.726 1.75-1.536 3.499-2.304 5.248-1.707-1.152-3.243-2.688-5.632-2.816 0-0.683-3.413-7.296 0-7.296 0-0.085 0.086-0.214 0.086-0.384-4.053-0.341-7.296-3.67-7.296-7.851 0-4.394 3.584-7.979 8.022-7.979h3.115c0.214-1.45 0.981-2.688 3.798-3.37 0.896-3.712 7.51-4.992 8.49-1.109-2.774 0-1.877 2.646-1.664 4.438h2.262c4.438 0 8.022 3.627 8.022 8.022 0 4.48-3.627 8.022-8.064 8.022v0zM448.726 199.978c0.555-0.086 4.267 0.043 4.267 0.726 3.328 0 7.894 0.469 11.178 1.493 0-4.906-4.181-7.723-3.456-12.63-2.774 0-1.536-2.816-1.536-3.84-1.834-1.067-2.134-3.158-4.267-4.181 0-2.219-4.992-5.93-6.442-7.851-1.664-2.091-6.656-5.846-7.339-8.534 0.171 0.64-9.173-9.728-6.954-9.728 0-1.92-2.646-17.195 0.768-17.195 0-1.365 2.858-14.208 1.152-14.208 0-4.139-2.688-6.613-2.688-9.942-1.28-0.896-3.158-1.408-3.84-2.688-2.389 0-3.456-4.95-4.608-4.95 0-5.334-1.536-9.301-1.536-15.36 0.469 0-3.029-8.576-3.029-9.173-2.944-1.962-10.154-8.789-10.154-12.331 0 0-4.992-6.998-5.803-8.022-1.493 0-13.056-2.176-13.056-3.072-2.517 0-8.832-1.962-10.411 0.384 0 2.432-1.28 5.504-1.493 8.875-1.152 0-1.365 4.95-2.688 4.95 0 1.024-7.339 15.744-6.187 15.744 0 1.493-1.28 6.486-1.536 6.486 0 5.334-3.84 9.728-3.84 14.592-1.152 0-3.456 10.709-2.304 10.709 0 5.589 1.962 9.301 2.731 15.574 0.896 6.827-0.384 11.050-1.622 15.872-0.64 0-2.816 3.67-3.072 4.565-3.029 2.048-4.182 6.144-4.182 9.984 2.048 2.262 2.858 10.923 2.304 13.738-3.882 1.877-5.418 1.195-9.642 1.195-2.517 4.95-19.115 1.92-23.894 1.92 0-2.731-11.563 0.512-12.63 2.688-2.858 0-8.49 6.016-8.49 8.789-3.072 2.048-8.022 12.373-8.022 15.744-2.688 1.28-1.877 6.528-0.426 6.528 0.341 1.45-0.938 5.974-1.536 8.107-0.469 1.664 1.579 3.413 1.579 5.291 0 5.333 0.128 7.851 3.115 13.482 0.896 1.792 2.134 3.499 2.986 5.718 1.622 4.011 2.091 0.214 4.267 3.798 2.048 1.066 3.243 4.437 5.418 6.144 0.896 1.238 0.896 1.75 0 2.688 0.426 0 2.646 5.931 2.646 7.254 2.986 4.182 0.896 2.304 3.84 1.92 1.067 1.195 2.901 4.224 4.608 4.224 0.768 1.45 2.688 2.304 4.224 2.304 0-2.304 6.229 0.768 6.954 0.768 1.067 2.133 7.978 4.65 9.642 4.65 0 2.645 13.568-0.768 15.744-0.427 0 0.427 0 0.811 0 1.152 2.858-0.64 8.192-12.331 7.723-14.934 2.219 0 4.31 0.384 5.803 0 0-2.517 4.608-3.072 6.741-3.2 2.944-0.128 11.648 0.298 11.648 4.394 2.304 0 4.31-1.578 3.882-4.224 2.603-0.298 18.005-0.598 16.896-3.84 2.219 0 2.774-3.84 4.992-3.84-0.426-2.688 2.688-9.6 5.034-9.6 0-2.346 1.45-6.528 3.456-8.022 1.067-3.286 4.693-10.24 8.064-12.288-1.45-2.688 2.176-4.949 3.072-7.68-0.214 0 0.81-3.968 1.92-4.565 0-2.731 5.717-13.781 8.832-13.781 0.214-1.408-2.901-2.091 1.195-2.346v0zM365.611 285.824c0.598 2.262 1.962 0.512 3.2 0.085 2.944-0.938 1.92 0.043 4.139 1.024 0-6.229-3.584-1.493-7.339-1.109v0zM357.589 297.302c1.493 0 2.005-6.998-2.346-5.718 0 1.707-1.11 4.95 1.195 4.95 0.64-2.688 1.152-1.578 1.152 0.768v0zM355.627 301.909c1.792-0.768 2.56-0.512 2.304 0.768 2.346-0.768-0.298-2.475-0.768-4.224-1.195 1.152-0.81 1.622-1.536 3.456v0zM314.454 336.043c-3.755 0.981 3.882 2.090 4.267 3.029-1.28 0-2.219 1.322-1.707 2.475 0.598 1.322 1.493-1.622 2.816-0.939 1.536 0.171 4.608 2.474 3.029-2.006-1.579-4.522-3.029-7.851-8.789-7.936-2.091 2.048-0.086 3.157 0.384 5.376v0zM328.704 351.744c3.115 0 0.384-2.304-0.298-2.304 0.512-0.214-0.086-2.090-0.086-2.688 2.816 0 2.901 1.792 4.992 2.346-0.426-2.603-3.286-3.114-0.512-5.291 1.536-1.195 3.029-2.56 2.474-4.352 3.712 0 4.224-3.499 3.456-7.638 2.005 0 1.92-0.128 1.92 1.878 2.005-0.512 1.834-2.304 0-2.304-1.877-3.584-6.613-3.413-10.026-3.413 0 2.774-0.555 2.944-3.158 2.176-3.498-1.067-0.768 2.816-0.683 4.693 0.426 0 8.022-0.341 3.456 1.152-0.214 4.138-1.152 5.376-4.992 5.376 0 2.816-0.981 2.645-1.45 5.717-0.726 4.523 3.541-0.298 4.906 4.651v0zM327.594 326.827c0-0.981-2.005-1.707-2.346-0.384 0.341-0.128 0.512 0 0.341 0.384 0.683 0 1.322 0 2.005 0v0zM296.022 368h-16.043c-4.438 0-8.022 3.584-8.022 8.022s3.584 7.978 8.022 7.978h16c4.438 0 8.022-3.584 8.022-8.022s-3.541-7.978-7.978-7.978v0zM202.794 226.389c0.896 0 1.92-0.341 1.92-1.109-1.152-0.042-2.688-1.152-1.92 1.109v0zM188.16 225.578c-0.64-1.195-5.803-0.982-6.528 0.427 1.963 0 3.413-0.768 5.376 0 0 1.066-0.853 1.92-1.494 3.072 2.133 0 4.438-1.621 7.296-1.578 0 1.792-0.768-0.341 0 1.963 1.195-0.298 4.096-3.030 4.267-4.224-4.267 0.427-4.438 0.341-8.917 0.341v0zM171.264 234.838c-1.963 0-5.803 1.664-6.912 3.456 1.877-0.128 3.755-0.896 4.992 1.109 4.864-0.512 5.291-3.84 9.216-3.84 0.768-1.28 4.906-4.267 0.896-4.65-3.072-0.298-6.912 1.365-8.192 3.925v0zM174.336 224.085c-1.408 0-3.798-0.64-2.688 2.304 1.877-0.256 2.816-1.024 2.688-2.304v0zM176.982 224.47c-0.726-0.128-1.536-0.298-2.262-0.384 0.256 1.792 1.92 3.755 2.262 0.384v0zM191.232 207.574c-0.256-1.067-0.256-1.11-1.536-1.11 0.171 0.512 0.256 1.024 0.384 1.536 0.384-0.128 0.81-0.256 1.152-0.426v0zM156.63 239.403c0.384-0.085 0.768-0.256 1.152-0.341 0.512-1.92 1.536-0.982 2.688-0.427 0-2.176-5.162-2.858-3.84 0.768v0z" />
</font>
</defs>
</svg>
